<?xml version="1.0" encoding="utf-8"?>
<svg viewBox="0 0 500 500" xmlns="http://www.w3.org/2000/svg">
  <rect width="500" height="500" style="fill: rgb(216, 216, 216);"/>
  <path d="M 179.79 317.158 L 128.72 317.158 L 128.72 304.858 L 144.64 302.118 L 144.64 190.108 L 128.72 187.368 L 128.72 175.068 L 192.1 175.068 C 202.453 175.068 211.193 176.615 218.32 179.708 C 225.447 182.801 230.867 187.278 234.58 193.138 C 238.293 198.998 240.15 206.158 240.15 214.618 C 240.15 222.951 238.343 229.951 234.73 235.618 C 231.117 241.278 225.99 245.558 219.35 248.458 C 212.703 251.351 204.823 252.898 195.71 253.098 L 163.88 253.678 L 163.88 302.118 L 179.79 304.858 L 179.79 317.158 Z M 246.3 317.158 L 222.57 317.158 L 190.93 246.158 L 210.17 245.968 L 236.44 302.798 L 246.3 304.558 L 246.3 317.158 Z M 163.88 190.108 L 163.88 238.548 L 190.15 238.548 C 200.89 238.548 208.7 236.495 213.58 232.388 C 218.467 228.288 220.91 222.301 220.91 214.428 C 220.91 206.941 218.567 201.015 213.88 196.648 C 209.193 192.288 201.933 190.108 192.1 190.108 L 163.88 190.108 ZM 320.614 317.158 L 263.974 317.158 L 263.974 304.858 L 279.894 302.118 L 279.894 190.108 L 263.974 187.368 L 263.974 174.968 L 279.894 174.968 L 319.634 174.968 C 332.201 174.968 343.157 177.965 352.504 183.958 C 361.844 189.945 369.117 198.178 374.324 208.658 C 379.531 219.145 382.134 231.125 382.134 244.598 L 382.134 247.628 C 382.134 260.781 379.627 272.615 374.614 283.128 C 369.607 293.641 362.497 301.941 353.284 308.028 C 344.071 314.115 333.181 317.158 320.614 317.158 Z M 299.134 190.108 L 299.134 302.118 L 319.634 302.118 C 328.621 302.118 336.337 299.661 342.784 294.748 C 349.231 289.828 354.194 283.251 357.674 275.018 C 361.161 266.785 362.904 257.655 362.904 247.628 L 362.904 244.408 C 362.904 234.055 361.161 224.791 357.674 216.618 C 354.194 208.451 349.231 201.991 342.784 197.238 C 336.337 192.485 328.621 190.108 319.634 190.108 L 299.134 190.108 Z" transform="matrix(1, 0, 0, 1, 0, 0)" style="fill: rgb(51, 51, 51); white-space: pre;"/>
</svg>